<?xml version="1.0" encoding="utf-8"?>
<!-- Generator: Adobe Illustrator 23.0.3, SVG Export Plug-In . SVG Version: 6.00 Build 0)  -->
<svg version="1.1" id="Layer_1" xmlns="http://www.w3.org/2000/svg" xmlns:xlink="http://www.w3.org/1999/xlink" x="0px" y="0px"
	 viewBox="0 0 305.7 222.9" style="enable-background:new 0 0 305.7 222.9;" xml:space="preserve">
<style type="text/css">
	.st0{fill:#F5F5F5;}
	.st1{fill:#C1C1C1;}
	.st2{fill:#EAEAEA;}
	.st3{fill:#D0D2D3;}
	.st4{fill:#6762A6;}
	.st5{fill:#474747;}
</style>
<title>icon</title>
<path class="st0" d="M85.9,145V81.2H50.3c-4.7,0-8.5,3.8-8.5,8.5v124.7c0,4.7,3.8,8.5,8.5,8.5h181.4c4.7,0,8.5-3.8,8.5-8.5v-60.9
	H94.4C89.7,153.5,85.9,149.7,85.9,145z"/>
<path class="st0" d="M50.3,81.2h181.4c4.7,0,8.5,3.8,8.5,8.5v124.7c0,4.7-3.8,8.5-8.5,8.5H50.3c-4.7,0-8.5-3.8-8.5-8.5V89.7
	C41.8,85,45.6,81.2,50.3,81.2z"/>
<rect x="134.8" y="123.4" class="st1" width="49.4" height="17.7"/>
<path class="st2" d="M231.7,81.2H85.9V100H41.8v5.7h44.1V145c0,4.7,3.8,8.5,8.5,8.5h145.8V89.7C240.2,85,236.4,81.2,231.7,81.2z"/>
<g>
	<path class="st3" d="M100.6,157.4h31.3c1.6,0,2.8,1.3,2.8,2.8v1c0,1.6-1.3,2.8-2.8,2.8h-31.3c-1.6,0-2.8-1.3-2.8-2.8v-1
		C97.8,158.6,99.1,157.4,100.6,157.4z"/>
	<path class="st3" d="M100.6,168h21.3c1.6,0,2.8,1.3,2.8,2.8v1c0,1.6-1.3,2.8-2.8,2.8h-21.3c-1.6,0-2.8-1.3-2.8-2.8v-1
		C97.8,169.3,99.1,168,100.6,168z"/>
	<path class="st3" d="M133.1,168h13.3c1.6,0,2.8,1.3,2.8,2.8v1c0,1.6-1.3,2.8-2.8,2.8h-13.3c-1.6,0-2.8-1.3-2.8-2.8v-1
		C130.3,169.3,131.6,168,133.1,168z"/>
	<path class="st3" d="M157.6,168.1h13c1.5,0,2.8,1.2,2.8,2.8v1c0,1.5-1.2,2.8-2.8,2.8h-13c-1.5,0-2.8-1.2-2.8-2.8v-1
		C154.9,169.3,156.1,168.1,157.6,168.1z"/>
	<path class="st3" d="M143.7,157.7h10.2c1.5,0,2.8,1.2,2.8,2.8v1c0,1.5-1.2,2.8-2.8,2.8h-10.2c-1.5,0-2.8-1.2-2.8-2.8v-1
		C141,159,142.2,157.7,143.7,157.7z"/>
	<path class="st3" d="M165.3,157.7h16.1c1.5,0,2.8,1.2,2.8,2.8v1c0,1.5-1.2,2.8-2.8,2.8h-16.1c-1.5,0-2.8-1.2-2.8-2.8v-1
		C162.6,159,163.8,157.7,165.3,157.7z"/>
	<path class="st3" d="M114.8,177.9h39.9c1.6,0,2.8,1.3,2.8,2.8v1c0,1.6-1.3,2.8-2.8,2.8h-39.9c-1.6,0-2.8-1.3-2.8-2.8v-1
		C112,179.2,113.2,177.9,114.8,177.9z"/>
	<path class="st3" d="M165.3,177.8h10.2c1.5,0,2.8,1.2,2.8,2.8v1c0,1.5-1.2,2.8-2.8,2.8h-10.2c-1.5,0-2.8-1.2-2.8-2.8v-1
		C162.6,179,163.8,177.8,165.3,177.8z"/>
	<path class="st3" d="M100.6,177.9h2.4c1.6,0,2.8,1.3,2.8,2.8v1c0,1.6-1.3,2.8-2.8,2.8h-2.4c-1.6,0-2.8-1.3-2.8-2.8v-1
		C97.8,179.2,99.1,177.9,100.6,177.9z"/>
	<path class="st4" d="M122.6,114.9h-21.3c-1.8,0-3.3,1.5-3.3,3.3v28c0,1.8,1.5,3.3,3.3,3.3h21.3h0c1.8,0,3.3-1.5,3.3-3.3v-28
		C125.9,116.4,124.4,114.9,122.6,114.9z M104.5,144.7v-7.8l3.9,3.9L104.5,144.7z M119.2,144.7h-3.7h0V131c0,0,0.9-3.3-11,1.3
		c0,0.1,0-12.7,0-12.7l3.9,0v8.2c0,0,10.9-4.3,10.9,3.2V144.7z M117.7,124.6L117.7,124.6h-4.1c1.5-1.8,2.8-4.9,2.8-4.9h4.3
		C120.7,119.7,119.9,121.7,117.7,124.6z"/>
</g>
<path class="st0" d="M115.8,0h181.4c4.7,0,8.5,3.8,8.5,8.5v124.7c0,4.7-3.8,8.5-8.5,8.5H115.8c-4.7,0-8.5-3.8-8.5-8.5V8.5
	C107.3,3.8,111.1,0,115.8,0z"/>
<g>
	<path class="st3" d="M166.2,70.9h31.3c1.6,0,2.8,1.3,2.8,2.8v1c0,1.6-1.3,2.8-2.8,2.8h-31.3c-1.6,0-2.8-1.3-2.8-2.8v-1
		C163.4,72.1,164.6,70.9,166.2,70.9z"/>
	<path class="st3" d="M166.2,81.5h21.3c1.6,0,2.8,1.3,2.8,2.8v1c0,1.6-1.3,2.8-2.8,2.8h-21.3c-1.6,0-2.8-1.3-2.8-2.8v-1
		C163.4,82.8,164.6,81.5,166.2,81.5z"/>
	<path class="st3" d="M198.7,81.5H212c1.6,0,2.8,1.3,2.8,2.8v1c0,1.6-1.3,2.8-2.8,2.8h-13.3c-1.6,0-2.8-1.3-2.8-2.8v-1
		C195.8,82.8,197.1,81.5,198.7,81.5z"/>
	<path class="st3" d="M222.4,81.5h13.3c1.6,0,2.8,1.3,2.8,2.8v1c0,1.6-1.3,2.8-2.8,2.8h-13.3c-1.6,0-2.8-1.3-2.8-2.8v-1
		C219.6,82.8,220.9,81.5,222.4,81.5z"/>
	<path class="st3" d="M208.2,70.9h10.4c1.6,0,2.8,1.3,2.8,2.8v1c0,1.6-1.3,2.8-2.8,2.8h-10.4c-1.6,0-2.8-1.3-2.8-2.8v-1
		C205.3,72.1,206.6,70.9,208.2,70.9z"/>
	<path class="st3" d="M230.4,70.9h16.5c1.6,0,2.8,1.3,2.8,2.8v1c0,1.6-1.3,2.8-2.8,2.8h-16.5c-1.6,0-2.8-1.3-2.8-2.8v-1
		C227.5,72.1,228.8,70.9,230.4,70.9z"/>
	<path class="st3" d="M180.4,91.4h39.9c1.6,0,2.8,1.3,2.8,2.8v1c0,1.6-1.3,2.8-2.8,2.8h-39.9c-1.6,0-2.8-1.3-2.8-2.8v-1
		C177.5,92.7,178.8,91.4,180.4,91.4z"/>
	<path class="st3" d="M230.4,91.4h10.4c1.6,0,2.8,1.3,2.8,2.8v1c0,1.6-1.3,2.8-2.8,2.8h-10.4c-1.6,0-2.8-1.3-2.8-2.8v-1
		C227.5,92.7,228.8,91.4,230.4,91.4z"/>
	<path class="st3" d="M166.2,91.4h2.4c1.6,0,2.8,1.3,2.8,2.8v1c0,1.6-1.3,2.8-2.8,2.8h-2.4c-1.6,0-2.8-1.3-2.8-2.8v-1
		C163.4,92.7,164.6,91.4,166.2,91.4z"/>
	<rect x="200.3" y="36.9" class="st1" width="49.4" height="17.7"/>
	<path class="st4" d="M188.1,28.4h-21.3c-1.8,0-3.3,1.5-3.3,3.3v28c0,1.8,1.5,3.3,3.3,3.3h21.3l0,0c1.8,0,3.3-1.5,3.3-3.3v-28
		C191.4,29.9,190,28.4,188.1,28.4z M170.1,58.2v-7.8l3.9,3.9L170.1,58.2z M184.8,58.2H181h0V44.5c0,0,0.9-3.3-11,1.3
		c0,0.1,0-12.7,0-12.7l3.9,0v8.2c0,0,10.9-4.3,10.9,3.2V58.2z M183.3,38.1L183.3,38.1h-4.1c1.5-1.8,2.8-4.9,2.8-4.9h4.3
		C186.2,33.2,185.5,35.2,183.3,38.1z"/>
</g>
<g>
	<path class="st5" d="M41.8,154.3c-23,0-41.8-18.7-41.8-41.8s18.7-41.8,41.8-41.8h65.3v5.7H41.8c-19.9,0-36.1,16.2-36.1,36.1
		c0,19.9,16.2,36.1,36.1,36.1V154.3z"/>
</g>
</svg>
